<?xml version="1.0" encoding="utf-8"?>
<!-- Generator: Adobe Illustrator 16.0.0, SVG Export Plug-In . SVG Version: 6.00 Build 0)  -->
<!DOCTYPE svg PUBLIC "-//W3C//DTD SVG 1.1//EN" "http://www.w3.org/Graphics/SVG/1.1/DTD/svg11.dtd">
<svg version="1.1" id="Layer_1" xmlns="http://www.w3.org/2000/svg" xmlns:xlink="http://www.w3.org/1999/xlink" x="0px" y="0px"
	 width="684.324px" height="230.257px" viewBox="0 0 684.324 230.257" enable-background="new 0 0 684.324 230.257"
	 xml:space="preserve">
<g>
	<g>
		<path fill="#F15B2A" d="M91.583,161.767l-0.317,0.004c-1.298,0.027-2.622,0.041-3.964,0.041c-12.065,0-21.845-1.223-29.066-3.639
			c-3.419-1.143-6.75-2.404-9.899-3.754c-2.697-1.156-5.892-2.711-8.544-4.16l-1.011-0.551l-1.92,11.035l0.438,0.299
			c2.964,2.029,5.585,3.584,7.79,4.619c1.735,0.816,3.583,1.588,5.496,2.293c1.923,0.713,3.969,1.379,6.082,1.98
			c8.311,2.365,15.516,3.391,18.164,3.604c4.21,0.338,7.064,0.488,9.257,0.488c3.025,0,4.709-0.293,7.011-0.76
			c2.966-0.904,4.279-1.469,5.743-2.844c2.183-2.049,2.613-4.68,1.07-6.549C96.394,162.041,93.295,161.767,91.583,161.767z"/>
		<path fill="#F15B2A" d="M152.959,78.76c-0.42-1.911-0.959-3.803-1.591-5.672c-0.006-0.025-0.008-0.048-0.014-0.073
			c-2.232-9.136-2.057-15.475-2.057-15.475h-0.017c1.851-24.86-18.891-49.066-49.101-55.784C94.837,0.567,89.529,0,84.362,0
			c-23.087,0-43.351,11.332-51.38,29.218c-0.305,0.343-0.652,1.118-1.042,2.548c-0.014,0.053-0.034,0.11-0.05,0.164
			c-0.197,0.539-0.387,1.082-0.563,1.631c-2.044,5.227-7.207,13.641-10.073,18.146c-0.184,0.264-0.372,0.524-0.551,0.792
			c-0.485,0.726-0.947,1.468-1.395,2.218c-0.029,0.044-0.048,0.073-0.048,0.073l0.002,0.007c-2.634,4.429-4.603,9.26-5.756,14.447
			c-0.006,0.029-0.01,0.059-0.017,0.088c-0.605,2.745-0.955,5.497-1.085,8.24c-3.474,26.001-7.095,51.982-10.75,77.958
			c-0.421,2.992-1.464,11.195-1.542,12.289c-0.437,6.156,0.403,12.271,2.343,18.135c6.566,19.838,25.77,36.762,51.085,42.393
			c5.813,1.293,11.586,1.91,17.205,1.91c19.529,0,37.194-7.461,48.195-19.924c4.796-5.434,8.329-11.814,10.191-18.947
			c0.138-0.529,1.531-5.66,2.083-7.742c3.62-13.656,7.222-27.316,10.776-40.99c3.219-12.381,6.413-24.771,9.536-37.179
			c0.578-1.694,1.071-3.431,1.467-5.209c0.22-0.989,0.408-1.979,0.564-2.968C154.55,91.061,154.289,84.82,152.959,78.76z
			 M140.126,61.625c-4.004,17.99-22.813,30.556-45.738,30.556c-4.638,0-9.338-0.522-13.971-1.553
			c-27.983-6.225-46.73-29.36-41.79-51.574C42.628,21.063,61.436,8.5,84.362,8.5c4.638,0,9.339,0.522,13.973,1.553
			C126.318,16.275,145.065,39.41,140.126,61.625z M116.814,150.257c-1.628,3.289-4.955,6.277-8.479,7.613l-1.4,0.531l1.198,0.9
			c3.362,2.525,4.639,5.678,4.844,6.992c0.421,2.68,0.394,4.863-1.038,7.461c-0.494,0.895-1.321,2.395-4.47,4.67
			c-6.243,4.508-16.899,5.641-20.017,5.881c-0.896,0.068-1.867,0.119-2.886,0.146l-0.657,0.018l-0.129,0.645
			c-0.552,2.752-1.1,5.457-1.644,8.105c-4.24-0.027-8.731-0.387-13.685-1.096c0.375-1.842,0.868-4.393,1.5-7.758l0.159-0.844
			l-0.851-0.125c-2.458-0.359-5.024-0.805-7.628-1.324c-1.421-0.283-2.858-0.611-4.524-1.035l-0.858-0.219l-0.157,0.873
			c-0.567,3.16-1.051,5.854-1.412,7.883c-2.186-0.609-4.527-1.344-5.069-1.521c-1.327-0.438-2.852-0.953-3.679-1.238
			c-1.624-0.561-3.081-1.125-4.435-1.719c0.49-2.729,0.991-5.533,1.499-8.393l0.11-0.621l-0.572-0.27
			c-0.686-0.322-1.371-0.648-2.058-0.99c-6.414-3.209-12.797-7.447-18.025-11.963l1.904-12.545
			c2.111-13.891,4.493-29.564,6.358-42.239c8.109,7.067,17.496,12.702,20.555,14.34l1.012,0.541l0.191-1.131
			c0.461-2.729,0.912-5.408,1.35-8.018c0.868,0.508,1.502,0.858,1.828,1.026c2.035,1.049,4.163,2.004,6.326,2.84
			c1.186,0.457,3.09,1.191,5.211,1.813c-0.414,2.393-0.88,5.051-1.38,7.891l-0.131,0.742l0.728,0.197
			c1.323,0.357,2.425,0.633,3.467,0.865c2.893,0.643,5.917,1.127,8.988,1.436l0.761,0.078l1.55-8.668
			c0.594,0.059,1.04,0.1,1.191,0.109c1.35,0.084,2.709,0.127,4.043,0.127c2.363,0,6.845-0.389,9.009-0.576l0.393-0.035
			c0.039-0.002,0.077-0.006,0.115-0.01l-1.682,8.93l1.891-0.164c0.431-0.037,0.849-0.072,1.172-0.1l0.005,0.02l0.688-0.061
			c2.354-0.203,4.281-0.145,6.13,0.188c8.016,1.432,14.092,7.258,14.134,13.551C118.274,146.25,117.815,148.236,116.814,150.257z"/>
		<path fill="#F15B2A" d="M100.024,143.093c-0.793-0.264-1.659-0.432-2.648-0.508c-0.727-0.055-2.824,0.039-5.106,0.148
			c-2.012,0.094-4.093,0.191-5.401,0.191c-5.772,0-11.692-0.625-17.597-1.861c-8.066-1.689-15.559-4.582-22.27-8.602
			c-0.562-0.336-1.426-0.795-2.428-1.326l-2.343-1.254l-1.94,11.154l0.5,0.289c6.53,3.754,13.946,7.572,23.908,10.074
			c6.088,1.531,13.498,2.381,22.026,2.523l0.358,0.008c0.573,0.01,1.539,0.027,2.364,0.027c0.492,0,0.937-0.008,1.225-0.023
			c5.038-0.293,5.61-0.453,7.001-1.021c0.241-0.098,0.514-0.209,0.863-0.338c2.699-0.99,4.398-3.445,4.23-6.107
			C102.652,144.628,101.064,143.443,100.024,143.093z"/>
		<path fill="#F15B2A" d="M88.644,27.233c1.011,0,1.993,0.084,2.929,0.252c0.253,0.046,0.783,0.179,1.452,0.371
			c0.114-0.451,0.182-0.833,0.199-1.106c0.733-6.102-0.88-8.143-3.848-10.274c-3.766-2.706-9.232-2.729-11.66-2.722
			c-8.979,0.027-18.059,4.399-22.64,9.338c-2.131,2.336-5.254,6.145-5.201,11.31c0,3.206,0.686,6.02,3.516,8.634
			c2.002,1.85,7.093,3.574,12.543,3.575c0.63,0,1.243-0.013,1.85-0.039c-0.493-3.878,0.736-7.854,3.714-11.671
			C74.911,30.529,82.283,27.233,88.644,27.233z"/>
		<path fill="#F15B2A" d="M96.345,33.313c-1.591-0.827-4.993-1.804-5.484-1.893c-0.696-0.125-1.441-0.188-2.217-0.188
			c-5.076,0-11.354,2.749-13.994,6.129c-3.926,5.032-3.971,9.966-0.133,14.665c1.032,1.265,13.727,12.974,19.059,17.492
			c1.982,1.68,4.431,3.475,8.406,3.495h0.071c0.001,0,0,0,0.001,0c4.38,0,8.929-1.963,13.52-5.833
			c5.097-3.848,6.395-7.931,6.584-10.686c0.228-3.299-1.014-6.467-3.494-8.921C115.644,44.589,102.617,36.574,96.345,33.313z
			 M91.271,58.146c-5.173-4.681-10.578-9.746-11.373-10.594c-2.042-2.532-1.218-3.976,0.27-5.882
			c1.208-1.547,5.356-3.438,8.476-3.438c0.324,0,0.622,0.021,0.885,0.062c0.72,0.193,2.9,0.873,3.588,1.229
			c3.687,1.917,9.037,5.114,13.406,7.923l-3.547,2.487l-8.345,5.855L91.271,58.146z M111.294,61.642l-0.167,0.133
			c-2.803,2.376-5.412,3.751-7.784,4.125c-0.086,0.014-0.175,0.038-0.26,0.049c-0.174,0.022-0.342,0.022-0.513,0.033
			c-0.173,0.011-0.348,0.033-0.518,0.033v3.5l-0.037-3.5c-1.586-0.008-2.45-0.594-3.915-1.835c-0.451-0.382-0.941-0.805-1.457-1.253
			l3.377-2.369l9.224-6.471l3.446-2.418c0.457,0.353,0.818,0.653,1.05,0.883c0.714,0.706,1.543,1.881,1.434,3.463
			C115.047,57.867,113.668,59.865,111.294,61.642z"/>
		<path fill="#F15B2A" d="M251.86,142.542c16.004-4.99,25.642-16.52,25.642-31.835c0-15.487-10.325-28.394-43.539-28.394h-44.398
			l-29.6,120.456h54.036c38.548,0,54.896-15.658,54.896-37.168C268.897,153.9,261.842,146.156,251.86,142.542z M217.271,173.171
			h-13.939l4.475-18.756h12.219c7.571,0,11.874,2.408,11.874,7.744C231.898,168.525,226.563,173.171,217.271,173.171z
			 M226.907,129.808h-13.078l4.302-17.897h11.358c7.916,0,11.529,2.582,11.529,7.399
			C241.019,124.99,236.717,129.808,226.907,129.808z"/>
		<polygon fill="#F15B2A" points="334.639,78.012 297.64,78.012 291.444,102.619 328.615,102.619 		"/>
		<polygon fill="#F15B2A" points="290.411,108.813 267.523,202.769 303.662,202.769 326.55,108.813 		"/>
		<path fill="#F15B2A" d="M371.294,136.863h18.068l7.056-28.049h-18.069l5.508-23.058H347.89l-5.507,23.058h-9.121l-6.884,28.049
			h8.949l-7.916,33.557c-1.033,4.301-1.721,7.914-1.721,11.701c0,15.314,10.325,22.715,29.083,22.715
			c6.539,0,12.39-1.033,18.413-2.754L380.414,173c-4.475,1.205-6.884,1.721-9.637,1.721c-4.475,0-6.539-1.721-6.539-5.162
			c0-1.721,0.344-3.785,0.86-6.195L371.294,136.863z"/>
		<path fill="#F15B2A" d="M447.013,170.935c-8.776,0-16.005-6.539-16.005-19.961c0-9.465,3.442-22.543,11.187-30.115
			c3.958-3.957,9.12-6.71,15.487-6.71c8.261,0,12.907,4.818,16.865,12.218l28.566-20.306c-7.572-16.004-23.748-26.156-43.022-26.156
			c-20.65,0-35.105,7.399-45.604,18.068c-15.315,15.144-22.199,36.826-22.199,56.443c0,31.318,20.307,50.764,50.422,50.764
			c19.446,0,33.558-7.744,44.743-19.789l-20.479-24.436C460.091,167.494,454.584,170.935,447.013,170.935z"/>
		<path fill="#F15B2A" d="M584.857,136.691c0-18.758-13.768-29.425-40.785-29.425c-12.563,0-24.781,1.721-35.278,4.817l4.13,26.5
			c5.163-2.064,15.145-4.129,22.716-4.129c8.604,0,12.907,3.27,12.907,8.947c0,1.377-0.345,3.27-0.688,4.646l-0.345,1.205
			c-6.195-2.238-12.218-3.441-19.102-3.441c-12.046,0-21.683,3.441-27.706,9.637c-6.195,6.193-9.465,16.174-9.465,25.639
			c0,14.971,8.948,23.748,22.027,23.748c9.809,0,16.004-4.131,23.231-10.498l-2.064,8.432h35.966l12.907-53.172
			C584.341,145.123,584.857,140.648,584.857,136.691z M542.867,170.935c-1.721,7.57-6.539,12.563-11.701,12.563
			c-4.303,0-6.023-2.754-6.023-7.4c0-3.785,1.377-7.744,3.958-10.324c2.065-2.064,4.475-3.098,7.916-3.098
			c2.409,0,5.335,0.516,7.399,1.205L542.867,170.935z"/>
		<path fill="#F15B2A" d="M661.093,106.577c-10.842,0-19.79,6.367-25.47,13.422l2.582-11.186h-35.967l-22.888,93.956h36.139
			l12.563-52.484c2.064-7.742,5.335-11.873,11.357-11.873c4.475,0,6.54,2.582,6.54,6.539c0,1.721-0.345,3.957-1.033,6.539
			l-12.39,51.279h36.138l13.939-57.646c1.205-5.334,1.721-9.637,1.721-13.938C684.324,116.386,676.236,106.577,661.093,106.577z"/>
	</g>
</g>
</svg>
